HIERARCHY
ROOT HipCenter
{
    OFFSET 0.0 0.0 -0.0
    CHANNELS 6 Xposition Yposition Zposition Zrotation Xrotation Yrotation
    JOINT Spine
    {
        OFFSET 0.0 7.563442230224609 0.0
        CHANNELS 3 Zrotation Xrotation Yrotation
        JOINT ShoulderCenter
        {
            OFFSET 0.0 34.93376159667969 0.0
            CHANNELS 3 Zrotation Xrotation Yrotation
            JOINT LeftShoulder
            {
                OFFSET 21.235095977783203 0.0 0.0
                CHANNELS 3 Zrotation Xrotation Yrotation
                JOINT LeftElbow
                {
                    OFFSET 26.436767578125 0.0 0.0
                    CHANNELS 3 Zrotation Xrotation Yrotation
                    JOINT LeftWrist
                    {
                        OFFSET 24.92226791381836 0.0 0.0
                        CHANNELS 3 Zrotation Xrotation Yrotation
                        JOINT LeftHand
                        {
                            OFFSET 9.39400577545166 0.0 0.0
                            CHANNELS 3 Zrotation Xrotation Yrotation
                            End Site
                            {
                                OFFSET 3.7576022148132324 0.0 0.0
                            }
                        }
                    }
                }
            }
            JOINT RightShoulder
            {
                OFFSET -21.235095977783203 0.0 0.0
                CHANNELS 3 Zrotation Xrotation Yrotation
                JOINT RightElbow
                {
                    OFFSET -26.436767578125 0.0 0.0
                    CHANNELS 3 Zrotation Xrotation Yrotation
                    JOINT RightWrist
                    {
                        OFFSET -24.92226791381836 0.0 0.0
                        CHANNELS 3 Zrotation Xrotation Yrotation
                        JOINT RightHand
                        {
                            OFFSET -9.39400577545166 0.0 0.0
                            CHANNELS 3 Zrotation Xrotation Yrotation
                            End Site
                            {
                                OFFSET -3.7576022148132324 0.0 0.0
                            }
                        }
                    }
                }
            }
            End Site
            {
                OFFSET 0.0 13.973504066467285 0.0
            }
        }
    }
    JOINT LeftHip
    {
        OFFSET 11.572842597961426 0.0 0.0
        CHANNELS 3 Zrotation Xrotation Yrotation
        JOINT LeftKnee
        {
            OFFSET 0.0 -50.044334411621094 0.0
            CHANNELS 3 Zrotation Xrotation Yrotation
            JOINT LeftAnkle
            {
                OFFSET 0.0 -34.21536636352539 0.0
                CHANNELS 3 Zrotation Xrotation Yrotation
                JOINT LeftFoot
                {
                    OFFSET 0.0 -9.181331634521484 0.0
                    CHANNELS 3 Zrotation Xrotation Yrotation
                    End Site
                    {
                        OFFSET 0.0 0.0 3.672532558441162
                    }
                }
            }
        }
    }
    JOINT RightHip
    {
        OFFSET -11.572842597961426 0.0 0.0
        CHANNELS 3 Zrotation Xrotation Yrotation
        JOINT RightKnee
        {
            OFFSET 0.0 -50.044334411621094 0.0
            CHANNELS 3 Zrotation Xrotation Yrotation
            JOINT RightAnkle
            {
                OFFSET 0.0 -34.21536636352539 0.0
                CHANNELS 3 Zrotation Xrotation Yrotation
                JOINT RightFoot
                {
                    OFFSET 0.0 -9.181331634521484 0.0
                    CHANNELS 3 Zrotation Xrotation Yrotation
                    End Site
                    {
                        OFFSET 0.0 0.0 3.672532558441162
                    }
                }
            }
        }
    }
}
MOTION
Frames: 6
Frame Time: 0.03333333333333333
-6.801299571990967 -1.2446999549865723 -282.21868896484375 10.14583692877512 -9.944864550224148 -159.88412982182848 2.057565917570023 -8.273432186726554 -0.28538924781625774 3.005125625162477e-07 -2.11167487082679e-07 -11.920920030706991 -68.20875377273028 -49.2449179538134 11.184800642615565 2.321584287084587e-07 4.990188355166299e-07 15.362206782453823 179.99995133503248 -82.65630981119746 -174.0499437726665 0.0 0.0 -2.385416011097637e-15 113.08431803091999 63.97718359069668 -136.6764423120513 -1.7214335297170317e-06 -2.3166953157480824e-06 -96.5681698474968 -7.99510674483756e-06 66.8779570080489 -28.90031991958662 0.0 0.0 3.1805546814635168e-15 3.021622417456229 -23.033132035985474 12.553676147078937 -2.4655924758082435 -0.5635217429016961 0.4805308376523906 35.546533178091565 6.353758719456785 -23.93575826216715 9.93923337957349e-16 1.5902773407317584e-15 -1.1927080055488188e-15 6.714303087316415 -19.024185383040244 -8.11317242463114 -0.5521792004322115 -4.238679333218475 -3.9099123454241322 -34.37690247781433 56.18335929309452 74.4612828674906 0.0 0.0 1.789062008323228e-15
-7.379200458526611 -1.3399999141693115 -282.5732116699219 9.932719787321757 -12.577024978090293 -164.38715428109046 1.76402253399883 -10.782765397880464 -0.3575003739628109 -2.3371519399448527e-08 -2.170154113746438e-07 -15.673074607042919 -65.22355368720176 -52.7981462632013 17.08331378239233 -3.3656191813058916e-06 -3.5267234496092326e-06 14.910104674353489 -179.99999600636352 -73.84353656802095 -172.68058315602264 6.3611093629270335e-15 2.2069531490250793e-32 3.975693351829396e-16 117.2239432014741 57.32817327144633 -140.80928345399118 3.597477911221463e-06 3.897586553842365e-07 -92.99851640609 2.951891154765462e-06 4.217618667261483 -18.553421741842275 5.517382872562698e-33 9.93923337957349e-17 -6.3611093629270335e-15 3.3872359405577885 -24.159603630403566 11.50457110114186 -1.8725324274906578 -1.5564284309048997 1.3911290294551102 35.08000449728819 8.383030124635999 -31.98641350175931 1.3293724645179542e-15 0.0 0.0 6.838230820187835 -20.949098260473253 -7.245523565006189 0.21766623008952332 -4.343038650213508 -3.8889671527098164 -38.384294421526135 54.12829019818555 77.90693708476152 -3.1805546814635168e-15 -2.4828222926532145e-32 8.945310041616142e-16
-7.896100044250488 -1.5019999742507935 -282.87969970703125 8.74461452935178 -15.848993865751327 -171.5172983880381 1.3559504243333045 -13.81473989965642 -0.4468414550483782 5.090596886470859e-07 1.1379895293589729e-07 -17.88936520226595 -67.92553088703185 -49.07774985123503 17.897983489092056 -7.434523862287375e-07 -2.0069404543466434e-06 16.419538434897518 -179.99999973989443 -58.35613862191839 -169.53571619102644 6.3611093629270335e-15 1.5902773407317584e-15 -7.951386703658792e-16 102.39507889190078 52.69092922790014 -125.21428956910677 -2.3439603652335757e-06 9.053888574763032e-08 -81.03186998892856 -2.4565199026960926e-06 10.156337989476034 -39.182637539773694 0.0 0.0 0.0 4.235576004175286 -25.333445485847584 10.570721380255737 -1.2317191601165072 -2.7393810639910385 2.591198103563291 33.77766288094909 11.18005583128184 -40.37278033522314 -5.963540027744093e-16 1.2414111463266072e-32 -2.385416011097637e-15 6.9121592505426515 -23.703438586546056 -7.167758982469464 1.5753511073820048 -3.5877930618029645 -3.1522924912895074 -44.265801812005925 50.06557898096473 84.16226832680172 3.1805546814635168e-15 -1.6000410330431826e-31 -5.764755360152624e-15
-8.306500434875488 -1.6916999816894531 -283.10919189453125 7.104780366220666 -18.50032190470892 -177.21849755878944 0.8894361488140062 -16.456592725306873 -0.5085890474377822 -1.238640393418336e-07 2.217630968150435e-08 -17.234545094719945 -71.3235518124371 -44.84452919950926 16.158542788375627 1.6153542760061196e-06 -5.690007285838679e-06 18.37564468232396 -179.99999997948632 -53.93711193764118 -168.5464554890548 7.724336021587778e-32 3.1805546814635168e-15 -2.782985346280577e-15 99.77862697460873 44.72306983391174 -124.99545822275245 3.266054213481606e-06 2.2665567737624633e-06 -58.927793757491095 -1.2522462260734513e-06 -3.7222136236739733 -34.429997322874 -6.3611093629270335e-15 -6.5598940305185035e-15 -3.641472695891381e-31 4.672092378693271 -26.81451599566209 11.714920218059927 -0.7695394051935145 -2.938180633581132 2.8631212212653097 35.693173943484446 16.44361068518159 -57.85802552569167 1.5902773407317584e-15 0.0 0.0 6.717075064742692 -26.33678280950306 -8.90888612146838 2.6646915745238076 -2.467163593678258 -2.114088050325758 -48.74763013339689 45.65694290358084 89.04454283380629 1.4345195468663017e-31 6.3611093629270335e-15 -2.5842006786891076e-15
-8.739899635314941 -1.822200059890747 -283.27569580078125 4.715246839174245 -20.988194629710232 176.0333404612634 0.5835305946667453 -19.039868487540815 -0.3023467911849502 -1.863933125487934e-07 2.2803268704087566e-07 -16.203393846339438 -70.05898107617888 -48.37344255000248 18.762185916609376 3.2109381191662115e-06 1.5165804871572545e-06 17.120844223912904 5.413500141097277e-06 -86.13385411937222 5.780464460965807 -6.3611093629270335e-15 3.1805546814635168e-15 -3.1805546814635168e-15 66.55633255973949 48.17067061941321 -102.15251003775462 2.653658648501003e-06 1.0720980753562018e-05 -20.74931127293767 -5.757681151156782e-07 -2.2626113352047503 -25.62668784750295 0.0 0.0 -1.5902773407317584e-15 5.293429391090179 -28.508907122360448 14.82220422306876 -0.39205151000803273 -2.677512182509866 2.654943739546053 35.2033734269118 17.817107440199937 -59.869007572714644 1.5902773407317584e-15 -3.1805546814635168e-15 7.951386703658792e-16 6.629434413749102 -29.308129504636636 -12.112832692593992 3.6651162174074163 -0.5898205618045822 -0.47930415744547633 -53.15374884489409 39.62807409640015 93.5259955478509 -3.1805546814635176e-15 6.361109362927035e-15 -2.7332891793827085e-16
-9.089799880981445 -1.9056999683380127 -283.37811279296875 2.567755617489367 -22.914820606116066 170.93061882973865 0.49633745868612406 -21.16928033098327 -0.015082149210633956 2.1529252957563584e-07 -1.8120771925908242e-07 -14.289104501180391 -68.73278119038618 -52.089747036116464 19.954830918156965 3.0379120466047566e-06 1.0908181394730383e-06 16.119239153787632 -1.0409578673499345e-06 -23.67759070561351 6.222767551651251 -1.5902773407317582e-15 1.5902773407317584e-15 -7.951386703658792e-15 -37.385476423452005 3.922027702440396 -45.05137386330033 1.1425766620654326e-06 9.722068262344261e-06 -9.156604633019557 7.796939926752202e-06 -54.36097203740147 -6.382613584416512 1.7655625192200634e-31 -3.1805546814635164e-15 6.361109362927033e-15 5.807418951222442 -30.186001917292295 17.49121928647711 -0.25579348849246547 -2.0938804256120727 2.089819346777952 34.80823392207111 17.604670911422772 -59.08388079042759 -3.1805546814635176e-15 -4.4139062980501586e-32 1.5902773407317588e-15 6.816374056053843 -31.796018103786455 -13.965862230920802 4.017838442939179 0.8438939204074015 0.6446620818615091 -55.32432088931748 35.25352726968813 94.668259805164 0.0 0.0 -2.7829853462805768e-15
